<mxfile host="app.diagrams.net" agent="Mozilla/5.0 (Macintosh; Intel Mac OS X 10_15_7) AppleWebKit/537.36 (KHTML, like Gecko) Chrome/127.0.0.0 Safari/537.36" version="24.7.7" pages="2">
  <diagram id="BwyMmpG00gAON-gNg3un" name="第 2 页">
    <mxGraphModel dx="954" dy="528" grid="1" gridSize="10" guides="1" tooltips="1" connect="1" arrows="1" fold="1" page="1" pageScale="1" pageWidth="827" pageHeight="1169" math="0" shadow="0">
      <root>
        <mxCell id="0" />
        <mxCell id="1" parent="0" />
        <mxCell id="-f1qinCIZGAzrFfk-XPS-1" value="" style="shape=umlLifeline;perimeter=lifelinePerimeter;whiteSpace=wrap;html=1;container=1;dropTarget=0;collapsible=0;recursiveResize=0;outlineConnect=0;portConstraint=eastwest;newEdgeStyle={&quot;curved&quot;:0,&quot;rounded&quot;:0};participant=umlActor;" parent="1" vertex="1">
          <mxGeometry x="90" y="100" width="20" height="580" as="geometry" />
        </mxCell>
        <mxCell id="-f1qinCIZGAzrFfk-XPS-2" value="景区SAAS-C" style="shape=umlLifeline;perimeter=lifelinePerimeter;whiteSpace=wrap;html=1;container=1;dropTarget=0;collapsible=0;recursiveResize=0;outlineConnect=0;portConstraint=eastwest;newEdgeStyle={&quot;curved&quot;:0,&quot;rounded&quot;:0};" parent="1" vertex="1">
          <mxGeometry x="230" y="100" width="100" height="580" as="geometry" />
        </mxCell>
        <mxCell id="-f1qinCIZGAzrFfk-XPS-13" value="" style="html=1;points=[[0,0,0,0,5],[0,1,0,0,-5],[1,0,0,0,5],[1,1,0,0,-5]];perimeter=orthogonalPerimeter;outlineConnect=0;targetShapes=umlLifeline;portConstraint=eastwest;newEdgeStyle={&quot;curved&quot;:0,&quot;rounded&quot;:0};" parent="-f1qinCIZGAzrFfk-XPS-2" vertex="1">
          <mxGeometry x="45" y="70" width="10" height="490" as="geometry" />
        </mxCell>
        <mxCell id="-f1qinCIZGAzrFfk-XPS-24" value="&lt;meta charset=&quot;utf-8&quot;&gt;&lt;span style=&quot;color: rgb(0, 0, 0); font-family: Helvetica; font-size: 11px; font-style: normal; font-variant-ligatures: normal; font-variant-caps: normal; font-weight: 400; letter-spacing: normal; orphans: 2; text-align: center; text-indent: 0px; text-transform: none; widows: 2; word-spacing: 0px; -webkit-text-stroke-width: 0px; white-space: nowrap; background-color: rgb(255, 255, 255); text-decoration-thickness: initial; text-decoration-style: initial; text-decoration-color: initial; display: inline !important; float: none;&quot;&gt;查询sku信息以及线路配置信息&lt;/span&gt;" style="html=1;align=left;spacingLeft=2;endArrow=block;rounded=0;edgeStyle=orthogonalEdgeStyle;curved=0;rounded=0;" parent="-f1qinCIZGAzrFfk-XPS-2" target="-f1qinCIZGAzrFfk-XPS-13" edge="1">
          <mxGeometry relative="1" as="geometry">
            <mxPoint x="55" y="153" as="sourcePoint" />
            <Array as="points">
              <mxPoint x="85" y="153" />
              <mxPoint x="85" y="183" />
            </Array>
            <mxPoint x="60" y="183" as="targetPoint" />
          </mxGeometry>
        </mxCell>
        <mxCell id="-f1qinCIZGAzrFfk-XPS-3" value="订单服务" style="shape=umlLifeline;whiteSpace=wrap;html=1;container=1;dropTarget=0;collapsible=0;recursiveResize=0;outlineConnect=0;portConstraint=eastwest;newEdgeStyle={&quot;curved&quot;:0,&quot;rounded&quot;:0};points=[[0,0,0,0,5],[0,1,0,0,-5],[1,0,0,0,5],[1,1,0,0,-5]];perimeter=rectanglePerimeter;targetShapes=umlLifeline;participant=label;" parent="1" vertex="1">
          <mxGeometry x="430" y="100" width="100" height="580" as="geometry" />
        </mxCell>
        <mxCell id="-f1qinCIZGAzrFfk-XPS-25" value="" style="html=1;points=[[0,0,0,0,5],[0,1,0,0,-5],[1,0,0,0,5],[1,1,0,0,-5]];perimeter=orthogonalPerimeter;outlineConnect=0;targetShapes=umlLifeline;portConstraint=eastwest;newEdgeStyle={&quot;curved&quot;:0,&quot;rounded&quot;:0};" parent="-f1qinCIZGAzrFfk-XPS-3" vertex="1">
          <mxGeometry x="45" y="220" width="10" height="310" as="geometry" />
        </mxCell>
        <mxCell id="-f1qinCIZGAzrFfk-XPS-30" value="组装行程单和预约单数据" style="html=1;align=left;spacingLeft=2;endArrow=block;rounded=0;edgeStyle=orthogonalEdgeStyle;curved=0;rounded=0;entryX=1;entryY=0.222;entryDx=0;entryDy=0;entryPerimeter=0;" parent="-f1qinCIZGAzrFfk-XPS-3" target="-f1qinCIZGAzrFfk-XPS-25" edge="1">
          <mxGeometry x="0.0118" relative="1" as="geometry">
            <mxPoint x="55" y="230" as="sourcePoint" />
            <Array as="points">
              <mxPoint x="85" y="230" />
              <mxPoint x="85" y="260" />
            </Array>
            <mxPoint x="60" y="260" as="targetPoint" />
            <mxPoint as="offset" />
          </mxGeometry>
        </mxCell>
        <mxCell id="-f1qinCIZGAzrFfk-XPS-35" value="保存订单数据（直通车订单类型、待支付）&lt;div&gt;保存行程单数据（如果行程单不存在）&lt;/div&gt;&lt;div&gt;保存预约信息数据&lt;/div&gt;" style="html=1;align=left;spacingLeft=2;endArrow=block;rounded=0;edgeStyle=orthogonalEdgeStyle;curved=0;rounded=0;" parent="-f1qinCIZGAzrFfk-XPS-3" target="-f1qinCIZGAzrFfk-XPS-25" edge="1">
          <mxGeometry relative="1" as="geometry">
            <mxPoint x="55" y="330" as="sourcePoint" />
            <Array as="points">
              <mxPoint x="85" y="330" />
              <mxPoint x="85" y="370" />
            </Array>
            <mxPoint x="60" y="360" as="targetPoint" />
          </mxGeometry>
        </mxCell>
        <mxCell id="-f1qinCIZGAzrFfk-XPS-37" value="走零元付流程，支付成功事件&lt;div&gt;（待使用）&lt;/div&gt;" style="html=1;align=left;spacingLeft=2;endArrow=block;rounded=0;edgeStyle=orthogonalEdgeStyle;curved=0;rounded=0;" parent="-f1qinCIZGAzrFfk-XPS-3" target="-f1qinCIZGAzrFfk-XPS-25" edge="1">
          <mxGeometry relative="1" as="geometry">
            <mxPoint x="55" y="400" as="sourcePoint" />
            <Array as="points">
              <mxPoint x="85" y="400" />
              <mxPoint x="85" y="430" />
            </Array>
            <mxPoint x="60" y="430" as="targetPoint" />
          </mxGeometry>
        </mxCell>
        <mxCell id="-f1qinCIZGAzrFfk-XPS-4" value="商品C服务" style="shape=umlLifeline;perimeter=lifelinePerimeter;whiteSpace=wrap;html=1;container=1;dropTarget=0;collapsible=0;recursiveResize=0;outlineConnect=0;portConstraint=eastwest;newEdgeStyle={&quot;curved&quot;:0,&quot;rounded&quot;:0};" parent="1" vertex="1">
          <mxGeometry x="683" y="100" width="100" height="580" as="geometry" />
        </mxCell>
        <mxCell id="-f1qinCIZGAzrFfk-XPS-15" value="" style="html=1;points=[[0,0,0,0,5],[0,1,0,0,-5],[1,0,0,0,5],[1,1,0,0,-5]];perimeter=orthogonalPerimeter;outlineConnect=0;targetShapes=umlLifeline;portConstraint=eastwest;newEdgeStyle={&quot;curved&quot;:0,&quot;rounded&quot;:0};" parent="-f1qinCIZGAzrFfk-XPS-4" vertex="1">
          <mxGeometry x="46" y="100" width="10" height="30" as="geometry" />
        </mxCell>
        <mxCell id="-f1qinCIZGAzrFfk-XPS-31" value="" style="html=1;points=[[0,0,0,0,5],[0,1,0,0,-5],[1,0,0,0,5],[1,1,0,0,-5]];perimeter=orthogonalPerimeter;outlineConnect=0;targetShapes=umlLifeline;portConstraint=eastwest;newEdgeStyle={&quot;curved&quot;:0,&quot;rounded&quot;:0};" parent="-f1qinCIZGAzrFfk-XPS-4" vertex="1">
          <mxGeometry x="45" y="280" width="10" height="30" as="geometry" />
        </mxCell>
        <mxCell id="-f1qinCIZGAzrFfk-XPS-38" value="" style="html=1;points=[[0,0,0,0,5],[0,1,0,0,-5],[1,0,0,0,5],[1,1,0,0,-5]];perimeter=orthogonalPerimeter;outlineConnect=0;targetShapes=umlLifeline;portConstraint=eastwest;newEdgeStyle={&quot;curved&quot;:0,&quot;rounded&quot;:0};" parent="-f1qinCIZGAzrFfk-XPS-4" vertex="1">
          <mxGeometry x="46" y="470" width="10" height="40" as="geometry" />
        </mxCell>
        <mxCell id="-f1qinCIZGAzrFfk-XPS-16" value="查询sku信息以及线路配置信息" style="html=1;verticalAlign=bottom;endArrow=block;curved=0;rounded=0;entryX=0;entryY=0;entryDx=0;entryDy=5;" parent="1" source="-f1qinCIZGAzrFfk-XPS-13" target="-f1qinCIZGAzrFfk-XPS-15" edge="1">
          <mxGeometry relative="1" as="geometry">
            <mxPoint x="290" y="205" as="sourcePoint" />
          </mxGeometry>
        </mxCell>
        <mxCell id="-f1qinCIZGAzrFfk-XPS-17" value="" style="html=1;verticalAlign=bottom;endArrow=open;dashed=1;endSize=8;curved=0;rounded=0;exitX=0;exitY=1;exitDx=0;exitDy=-5;exitPerimeter=0;" parent="1" source="-f1qinCIZGAzrFfk-XPS-15" edge="1">
          <mxGeometry relative="1" as="geometry">
            <mxPoint x="290" y="223" as="targetPoint" />
            <mxPoint x="706" y="223" as="sourcePoint" />
          </mxGeometry>
        </mxCell>
        <mxCell id="-f1qinCIZGAzrFfk-XPS-26" value="下单" style="html=1;verticalAlign=bottom;endArrow=block;curved=0;rounded=0;entryX=0;entryY=0;entryDx=0;entryDy=5;" parent="1" source="-f1qinCIZGAzrFfk-XPS-13" target="-f1qinCIZGAzrFfk-XPS-25" edge="1">
          <mxGeometry relative="1" as="geometry">
            <mxPoint x="290" y="325" as="sourcePoint" />
          </mxGeometry>
        </mxCell>
        <mxCell id="-f1qinCIZGAzrFfk-XPS-27" value="" style="html=1;verticalAlign=bottom;endArrow=open;dashed=1;endSize=8;curved=0;rounded=0;exitX=0;exitY=1;exitDx=0;exitDy=-5;" parent="1" source="-f1qinCIZGAzrFfk-XPS-25" edge="1">
          <mxGeometry relative="1" as="geometry">
            <mxPoint x="290" y="625" as="targetPoint" />
          </mxGeometry>
        </mxCell>
        <mxCell id="-f1qinCIZGAzrFfk-XPS-32" value="预扣库存" style="html=1;verticalAlign=bottom;endArrow=block;curved=0;rounded=0;entryX=0;entryY=0;entryDx=0;entryDy=5;" parent="1" source="-f1qinCIZGAzrFfk-XPS-25" target="-f1qinCIZGAzrFfk-XPS-31" edge="1">
          <mxGeometry relative="1" as="geometry">
            <mxPoint x="620" y="355" as="sourcePoint" />
          </mxGeometry>
        </mxCell>
        <mxCell id="-f1qinCIZGAzrFfk-XPS-33" value="" style="html=1;verticalAlign=bottom;endArrow=open;dashed=1;endSize=8;curved=0;rounded=0;" parent="1" edge="1">
          <mxGeometry relative="1" as="geometry">
            <mxPoint x="484" y="404" as="targetPoint" />
            <mxPoint x="729" y="404" as="sourcePoint" />
          </mxGeometry>
        </mxCell>
        <mxCell id="-f1qinCIZGAzrFfk-XPS-39" value="实扣库存" style="html=1;verticalAlign=bottom;endArrow=block;curved=0;rounded=0;entryX=0;entryY=0;entryDx=0;entryDy=5;" parent="1" source="-f1qinCIZGAzrFfk-XPS-25" target="-f1qinCIZGAzrFfk-XPS-38" edge="1">
          <mxGeometry relative="1" as="geometry">
            <mxPoint x="636" y="545" as="sourcePoint" />
          </mxGeometry>
        </mxCell>
        <mxCell id="-f1qinCIZGAzrFfk-XPS-40" value="" style="html=1;verticalAlign=bottom;endArrow=open;dashed=1;endSize=8;curved=0;rounded=0;" parent="1" edge="1">
          <mxGeometry x="0.0045" relative="1" as="geometry">
            <mxPoint x="485" y="600" as="targetPoint" />
            <mxPoint x="730" y="600" as="sourcePoint" />
            <mxPoint as="offset" />
          </mxGeometry>
        </mxCell>
        <mxCell id="-f1qinCIZGAzrFfk-XPS-41" value="" style="html=1;verticalAlign=bottom;endArrow=open;dashed=1;endSize=8;curved=0;rounded=0;exitX=0;exitY=1;exitDx=0;exitDy=-5;" parent="1" edge="1">
          <mxGeometry relative="1" as="geometry">
            <mxPoint x="100" y="650" as="targetPoint" />
            <mxPoint x="275" y="650" as="sourcePoint" />
          </mxGeometry>
        </mxCell>
        <mxCell id="-f1qinCIZGAzrFfk-XPS-42" value="下单" style="html=1;verticalAlign=bottom;endArrow=block;curved=0;rounded=0;" parent="1" edge="1">
          <mxGeometry relative="1" as="geometry">
            <mxPoint x="100" y="180" as="sourcePoint" />
            <mxPoint x="270" y="180" as="targetPoint" />
            <mxPoint as="offset" />
          </mxGeometry>
        </mxCell>
      </root>
    </mxGraphModel>
  </diagram>
  <diagram id="DXdGZQlmYiZ5UKTuel35" name="第 3 页">
    <mxGraphModel dx="954" dy="528" grid="1" gridSize="10" guides="1" tooltips="1" connect="1" arrows="1" fold="1" page="1" pageScale="1" pageWidth="827" pageHeight="1169" math="0" shadow="0">
      <root>
        <mxCell id="0" />
        <mxCell id="1" parent="0" />
        <mxCell id="u8Kuy1pCIGRqW0LY4Ca6-3" value="" style="edgeStyle=orthogonalEdgeStyle;rounded=0;orthogonalLoop=1;jettySize=auto;html=1;" edge="1" parent="1" source="u8Kuy1pCIGRqW0LY4Ca6-1">
          <mxGeometry relative="1" as="geometry">
            <mxPoint x="220" y="210" as="targetPoint" />
          </mxGeometry>
        </mxCell>
        <mxCell id="u8Kuy1pCIGRqW0LY4Ca6-1" value="待支付" style="strokeWidth=2;html=1;shape=mxgraph.flowchart.terminator;whiteSpace=wrap;" vertex="1" parent="1">
          <mxGeometry x="50" y="180" width="100" height="60" as="geometry" />
        </mxCell>
        <mxCell id="u8Kuy1pCIGRqW0LY4Ca6-14" style="edgeStyle=orthogonalEdgeStyle;rounded=0;orthogonalLoop=1;jettySize=auto;html=1;exitX=0.5;exitY=0;exitDx=0;exitDy=0;entryX=0;entryY=0.5;entryDx=0;entryDy=0;" edge="1" parent="1" source="u8Kuy1pCIGRqW0LY4Ca6-4" target="u8Kuy1pCIGRqW0LY4Ca6-13">
          <mxGeometry relative="1" as="geometry" />
        </mxCell>
        <mxCell id="u8Kuy1pCIGRqW0LY4Ca6-15" value="导游爽约/用户取消" style="edgeLabel;html=1;align=center;verticalAlign=middle;resizable=0;points=[];" vertex="1" connectable="0" parent="u8Kuy1pCIGRqW0LY4Ca6-14">
          <mxGeometry x="-0.0341" relative="1" as="geometry">
            <mxPoint as="offset" />
          </mxGeometry>
        </mxCell>
        <mxCell id="u8Kuy1pCIGRqW0LY4Ca6-4" value="待出行&lt;div&gt;（待使用）&lt;/div&gt;" style="whiteSpace=wrap;html=1;strokeWidth=2;" vertex="1" parent="1">
          <mxGeometry x="220" y="180" width="120" height="60" as="geometry" />
        </mxCell>
        <mxCell id="u8Kuy1pCIGRqW0LY4Ca6-9" value="" style="edgeStyle=orthogonalEdgeStyle;rounded=0;orthogonalLoop=1;jettySize=auto;html=1;exitX=1;exitY=0.5;exitDx=0;exitDy=0;" edge="1" parent="1" source="u8Kuy1pCIGRqW0LY4Ca6-4" target="u8Kuy1pCIGRqW0LY4Ca6-8">
          <mxGeometry relative="1" as="geometry">
            <mxPoint x="340" y="210" as="sourcePoint" />
            <mxPoint x="450" y="210" as="targetPoint" />
          </mxGeometry>
        </mxCell>
        <mxCell id="u8Kuy1pCIGRqW0LY4Ca6-11" style="edgeStyle=orthogonalEdgeStyle;rounded=0;orthogonalLoop=1;jettySize=auto;html=1;exitX=1;exitY=0.5;exitDx=0;exitDy=0;exitPerimeter=0;" edge="1" parent="1" source="u8Kuy1pCIGRqW0LY4Ca6-8" target="u8Kuy1pCIGRqW0LY4Ca6-10">
          <mxGeometry relative="1" as="geometry" />
        </mxCell>
        <mxCell id="u8Kuy1pCIGRqW0LY4Ca6-12" value="单程确认上车" style="edgeLabel;html=1;align=center;verticalAlign=middle;resizable=0;points=[];" vertex="1" connectable="0" parent="u8Kuy1pCIGRqW0LY4Ca6-11">
          <mxGeometry x="-0.075" y="-1" relative="1" as="geometry">
            <mxPoint as="offset" />
          </mxGeometry>
        </mxCell>
        <mxCell id="u8Kuy1pCIGRqW0LY4Ca6-17" style="edgeStyle=orthogonalEdgeStyle;rounded=0;orthogonalLoop=1;jettySize=auto;html=1;entryX=0.5;entryY=0;entryDx=0;entryDy=0;" edge="1" parent="1" source="u8Kuy1pCIGRqW0LY4Ca6-8" target="u8Kuy1pCIGRqW0LY4Ca6-16">
          <mxGeometry relative="1" as="geometry" />
        </mxCell>
        <mxCell id="u8Kuy1pCIGRqW0LY4Ca6-18" value="双程确认上车" style="edgeLabel;html=1;align=center;verticalAlign=middle;resizable=0;points=[];" vertex="1" connectable="0" parent="u8Kuy1pCIGRqW0LY4Ca6-17">
          <mxGeometry x="-0.2" y="1" relative="1" as="geometry">
            <mxPoint as="offset" />
          </mxGeometry>
        </mxCell>
        <mxCell id="u8Kuy1pCIGRqW0LY4Ca6-8" value="单程/双程" style="strokeWidth=2;html=1;shape=mxgraph.flowchart.decision;whiteSpace=wrap;" vertex="1" parent="1">
          <mxGeometry x="390" y="160" width="100" height="100" as="geometry" />
        </mxCell>
        <mxCell id="u8Kuy1pCIGRqW0LY4Ca6-10" value="已完成" style="whiteSpace=wrap;html=1;strokeWidth=2;fillColor=#e51400;fontColor=#ffffff;strokeColor=#B20000;" vertex="1" parent="1">
          <mxGeometry x="620" y="180" width="120" height="60" as="geometry" />
        </mxCell>
        <mxCell id="u8Kuy1pCIGRqW0LY4Ca6-13" value="已取消" style="whiteSpace=wrap;html=1;strokeWidth=2;fillColor=#e51400;fontColor=#ffffff;strokeColor=#B20000;" vertex="1" parent="1">
          <mxGeometry x="620" y="80" width="120" height="60" as="geometry" />
        </mxCell>
        <mxCell id="u8Kuy1pCIGRqW0LY4Ca6-20" style="edgeStyle=orthogonalEdgeStyle;rounded=0;orthogonalLoop=1;jettySize=auto;html=1;exitX=1;exitY=0.5;exitDx=0;exitDy=0;entryX=0.5;entryY=1;entryDx=0;entryDy=0;" edge="1" parent="1" source="u8Kuy1pCIGRqW0LY4Ca6-16" target="u8Kuy1pCIGRqW0LY4Ca6-10">
          <mxGeometry relative="1" as="geometry">
            <mxPoint x="620" y="350" as="targetPoint" />
          </mxGeometry>
        </mxCell>
        <mxCell id="u8Kuy1pCIGRqW0LY4Ca6-21" value="返程确认" style="edgeLabel;html=1;align=center;verticalAlign=middle;resizable=0;points=[];" vertex="1" connectable="0" parent="u8Kuy1pCIGRqW0LY4Ca6-20">
          <mxGeometry x="-0.3862" relative="1" as="geometry">
            <mxPoint as="offset" />
          </mxGeometry>
        </mxCell>
        <mxCell id="u8Kuy1pCIGRqW0LY4Ca6-16" value="待返程&lt;div&gt;（新增状态）&lt;/div&gt;" style="whiteSpace=wrap;html=1;strokeWidth=2;fillColor=#60a917;fontColor=#ffffff;strokeColor=#2D7600;" vertex="1" parent="1">
          <mxGeometry x="380" y="320" width="120" height="60" as="geometry" />
        </mxCell>
      </root>
    </mxGraphModel>
  </diagram>
</mxfile>
